<svg height='100px' width='100px'  fill="#000000" xmlns="http://www.w3.org/2000/svg" xmlns:xlink="http://www.w3.org/1999/xlink" version="1.1" x="0px" y="0px" viewBox="0 0 100 100" enable-background="new 0 0 100 100" xml:space="preserve"><g><path fill="none" d="M52.844,34.481c-0.767-0.113-1.53-0.168-2.283-0.168c-7.588,0-14.252,5.571-15.392,13.296   c-1.253,8.492,4.636,16.421,13.128,17.674c8.491,1.252,16.421-4.636,17.674-13.129C67.225,43.663,61.336,35.735,52.844,34.481z"></path><path fill="none" d="M81.211,49.701c-0.017-0.952,0.669-1.772,1.609-1.924l0.158-0.025l7.61-2.26   c0.281-0.083,0.423-0.281,0.483-0.391c0.06-0.11,0.148-0.338,0.065-0.618l-4.002-13.488c-0.083-0.281-0.281-0.423-0.391-0.483   c-0.111-0.06-0.338-0.15-0.618-0.065l-7.67,2.275c-0.066,0.02-0.145,0.062-0.236,0.128c-0.415,0.298-0.93,0.417-1.435,0.334   c-0.504-0.085-0.953-0.367-1.248-0.784c-0.991-1.404-2.086-2.718-3.255-3.905c-0.667-0.677-0.736-1.742-0.162-2.5   c0.005-0.006,0.057-0.074,0.062-0.08l3.999-6.928c0.146-0.254,0.114-0.495,0.081-0.617c-0.033-0.121-0.125-0.347-0.379-0.493   l-12.189-7.025c-0.254-0.146-0.495-0.114-0.616-0.081c-0.122,0.033-0.347,0.125-0.493,0.379l-3.995,6.931   c-0.033,0.058-0.061,0.143-0.083,0.254c-0.097,0.5-0.389,0.941-0.812,1.224c-0.422,0.284-0.941,0.388-1.44,0.289   c-0.509-0.101-1.023-0.191-1.542-0.268c-1.123-0.165-2.305-0.27-3.512-0.311c-0.95-0.033-1.733-0.757-1.838-1.703   c-0.001-0.007-0.009-0.092-0.01-0.099L47.48,9.687c-0.069-0.285-0.259-0.437-0.365-0.503c-0.108-0.066-0.329-0.166-0.614-0.097   l-13.676,3.299c-0.285,0.069-0.437,0.259-0.503,0.366s-0.165,0.33-0.096,0.614l1.875,7.777c0.016,0.065,0.055,0.148,0.115,0.242   c0.276,0.43,0.369,0.951,0.259,1.45c-0.111,0.499-0.416,0.932-0.848,1.205c-1.441,0.91-2.809,1.936-4.065,3.051   c-0.712,0.633-1.781,0.646-2.508,0.03c-0.006-0.004-0.068-0.058-0.073-0.063l-6.716-4.355c-0.246-0.159-0.489-0.138-0.612-0.112   c-0.123,0.026-0.353,0.107-0.512,0.352l-7.646,11.81c-0.159,0.246-0.139,0.489-0.112,0.611c0.026,0.123,0.107,0.352,0.352,0.512   l6.716,4.347c0.056,0.036,0.139,0.068,0.248,0.095c0.494,0.123,0.919,0.437,1.18,0.874c0.261,0.437,0.338,0.959,0.214,1.453   c-0.258,1.021-0.466,2.067-0.62,3.109c-0.094,0.639-0.161,1.275-0.216,1.91c-0.082,0.949-0.848,1.693-1.798,1.747l-0.163,0.008   l-7.802,1.463c-0.288,0.054-0.45,0.236-0.521,0.339c-0.071,0.104-0.182,0.321-0.129,0.608l2.588,13.829   c0.054,0.288,0.236,0.45,0.339,0.52c0.104,0.071,0.318,0.182,0.607,0.128l7.864-1.471c0.067-0.013,0.15-0.047,0.247-0.102   c0.444-0.253,0.969-0.318,1.461-0.183c0.492,0.136,0.909,0.463,1.159,0.908c0.832,1.481,1.788,2.9,2.84,4.216   c0.596,0.743,0.553,1.812-0.099,2.507l-0.111,0.117l-4.652,6.435c-0.172,0.237-0.164,0.482-0.144,0.605   c0.02,0.124,0.088,0.358,0.326,0.53l11.399,8.247c0.237,0.171,0.479,0.163,0.604,0.143c0.124-0.02,0.358-0.089,0.529-0.325   l4.689-6.481c0.039-0.054,0.075-0.134,0.107-0.241c0.149-0.487,0.485-0.895,0.934-1.133c0.45-0.238,0.975-0.29,1.462-0.138   c1.51,0.466,3.075,0.82,4.655,1.054c2.205,0.325,4.467,0.409,6.719,0.253c0.045-0.003,0.09-0.005,0.135-0.005   c0.893,0,1.676,0.622,1.87,1.506c0.001,0.008,0.02,0.094,0.021,0.103l2.663,7.541c0.098,0.276,0.302,0.408,0.416,0.462   c0.113,0.054,0.346,0.13,0.621,0.033l13.262-4.695c0.276-0.097,0.408-0.302,0.462-0.415c0.054-0.113,0.13-0.345,0.033-0.62   l-2.669-7.542c-0.023-0.065-0.071-0.142-0.141-0.23c-0.319-0.399-0.465-0.909-0.406-1.416c0.059-0.507,0.318-0.97,0.719-1.286   c1.359-1.067,2.616-2.227,3.734-3.449c0.64-0.699,1.695-0.826,2.482-0.295c0.008,0.006,0.086,0.06,0.094,0.065l7.117,3.631   c0.4,0.202,0.889,0.043,1.093-0.355l6.385-12.536c0.203-0.399,0.044-0.889-0.355-1.092l-7.128-3.631   c-0.06-0.03-0.146-0.054-0.256-0.069c-0.505-0.071-0.962-0.339-1.267-0.747c-0.306-0.408-0.437-0.921-0.363-1.426   C81.133,53.12,81.241,51.412,81.211,49.701z M69.76,52.714c-0.756,5.126-3.464,9.65-7.623,12.74c-3.38,2.51-7.391,3.83-11.526,3.83   c-0.953,0-1.913-0.07-2.873-0.211C37.157,67.51,29.819,57.631,31.381,47.05c1.562-10.581,11.437-17.923,22.022-16.358   C63.985,32.254,71.323,42.133,69.76,52.714z"></path><path d="M91.677,49.164c1.188-0.353,2.169-1.148,2.76-2.237c0.591-1.09,0.723-2.345,0.37-3.533l-4.002-13.488   c-0.353-1.188-1.148-2.169-2.237-2.76c-1.09-0.591-2.345-0.722-3.533-0.37L77.74,28.94c-0.545-0.704-1.113-1.386-1.701-2.039   l3.459-6.002c0.619-1.074,0.783-2.325,0.461-3.523c-0.322-1.197-1.091-2.198-2.165-2.817L65.605,7.534   c-1.074-0.619-2.324-0.784-3.523-0.461c-1.197,0.322-2.198,1.091-2.817,2.165l-3.795,6.584c-0.066-0.01-0.133-0.02-0.2-0.03   c-0.793-0.117-1.61-0.207-2.442-0.269l-1.625-6.734c-0.6-2.488-3.113-4.025-5.601-3.424L31.926,8.664   c-1.205,0.291-2.225,1.033-2.872,2.091c-0.647,1.058-0.843,2.305-0.552,3.509l1.784,7.397c-0.729,0.506-1.438,1.038-2.122,1.595   l-5.818-3.766c-1.042-0.675-2.283-0.901-3.494-0.643c-1.212,0.259-2.251,0.976-2.925,2.016l-7.646,11.81   c-0.674,1.041-0.902,2.281-0.643,3.494c0.26,1.212,0.976,2.251,2.016,2.925l6.379,4.129c-0.135,0.656-0.252,1.316-0.349,1.975   c-0.031,0.212-0.061,0.427-0.088,0.649L8.79,47.119c-1.219,0.228-2.276,0.917-2.976,1.94c-0.7,1.023-0.961,2.257-0.733,3.476   l2.588,13.829c0.228,1.219,0.917,2.275,1.939,2.977c1.023,0.7,2.257,0.961,3.476,0.732l7.478-1.399   c0.468,0.753,0.964,1.488,1.485,2.2l-4.063,5.615c-0.727,1.005-1.019,2.233-0.823,3.457c0.197,1.225,0.858,2.299,1.863,3.026   l11.399,8.247c1.005,0.727,2.231,1.019,3.457,0.822c1.224-0.196,2.298-0.857,3.025-1.862l4.453-6.155   c1.225,0.319,2.474,0.573,3.732,0.759c1.989,0.293,4.016,0.41,6.046,0.358l2.311,6.529c0.413,1.169,1.258,2.107,2.377,2.641   c0.635,0.302,1.314,0.455,1.996,0.455c0.522-0.001,1.045-0.09,1.552-0.268l13.262-4.695c1.169-0.413,2.107-1.258,2.641-2.377   c0.534-1.119,0.6-2.38,0.187-3.547l-2.538-7.171c0.678-0.582,1.33-1.184,1.951-1.804l6.17,3.142   c2.281,1.159,5.081,0.251,6.243-2.029l6.385-12.537c0.563-1.105,0.662-2.363,0.278-3.542c-0.383-1.179-1.203-2.138-2.308-2.701   l-6.773-3.45c0.088-0.878,0.143-1.764,0.165-2.653L91.677,49.164z M81.254,56.203c0.306,0.408,0.762,0.677,1.267,0.747   c0.109,0.015,0.196,0.039,0.256,0.069l7.128,3.631c0.399,0.203,0.559,0.693,0.355,1.092l-6.385,12.536   c-0.204,0.398-0.693,0.557-1.093,0.355l-7.117-3.631c-0.008-0.006-0.086-0.06-0.094-0.065c-0.787-0.53-1.842-0.404-2.482,0.295   c-1.119,1.222-2.375,2.382-3.734,3.449c-0.401,0.316-0.66,0.779-0.719,1.286c-0.059,0.508,0.087,1.017,0.406,1.416   c0.071,0.088,0.118,0.166,0.141,0.23l2.669,7.542c0.098,0.275,0.021,0.507-0.033,0.62c-0.054,0.113-0.186,0.318-0.462,0.415   l-13.262,4.695c-0.275,0.097-0.508,0.021-0.621-0.033c-0.113-0.054-0.318-0.186-0.416-0.462l-2.663-7.541   c-0.002-0.008-0.02-0.094-0.021-0.103c-0.193-0.885-0.977-1.506-1.87-1.506c-0.045,0-0.089,0.002-0.135,0.005   c-2.252,0.156-4.514,0.072-6.719-0.253c-1.58-0.234-3.146-0.588-4.655-1.054c-0.487-0.151-1.012-0.1-1.462,0.138   c-0.449,0.238-0.785,0.646-0.934,1.133c-0.033,0.108-0.068,0.187-0.107,0.241l-4.689,6.481c-0.172,0.237-0.405,0.306-0.529,0.325   c-0.125,0.02-0.368,0.028-0.604-0.143L21.269,79.87c-0.238-0.172-0.306-0.406-0.326-0.53c-0.02-0.123-0.028-0.367,0.144-0.605   l4.652-6.435l0.111-0.117c0.652-0.695,0.695-1.763,0.099-2.507c-1.052-1.316-2.008-2.734-2.84-4.216   c-0.25-0.445-0.667-0.772-1.159-0.908c-0.491-0.135-1.017-0.07-1.461,0.183c-0.097,0.055-0.18,0.09-0.247,0.102l-7.864,1.471   c-0.289,0.054-0.503-0.057-0.607-0.128c-0.104-0.071-0.286-0.233-0.339-0.52L8.845,51.831c-0.054-0.287,0.058-0.504,0.129-0.608   c0.071-0.104,0.233-0.286,0.521-0.339l7.802-1.463l0.163-0.008c0.95-0.054,1.717-0.798,1.798-1.747   c0.055-0.634,0.122-1.271,0.216-1.91c0.154-1.042,0.362-2.087,0.62-3.109c0.125-0.493,0.048-1.016-0.214-1.453   c-0.261-0.437-0.686-0.751-1.18-0.874c-0.108-0.027-0.192-0.059-0.248-0.095l-6.716-4.347c-0.245-0.159-0.326-0.389-0.352-0.512   c-0.027-0.123-0.047-0.366,0.112-0.611l7.646-11.81c0.159-0.245,0.389-0.326,0.512-0.352c0.123-0.026,0.366-0.047,0.612,0.112   l6.716,4.355c0.005,0.005,0.067,0.058,0.073,0.063c0.727,0.616,1.796,0.603,2.508-0.03c1.256-1.115,2.624-2.142,4.065-3.051   c0.432-0.273,0.737-0.706,0.848-1.205c0.11-0.499,0.017-1.021-0.259-1.45c-0.061-0.094-0.099-0.177-0.115-0.242l-1.875-7.777   c-0.069-0.284,0.031-0.507,0.096-0.614s0.218-0.297,0.503-0.366l13.676-3.299c0.285-0.07,0.507,0.031,0.614,0.097   c0.107,0.065,0.297,0.218,0.365,0.503l1.871,7.781c0.001,0.008,0.009,0.092,0.01,0.099c0.105,0.945,0.888,1.67,1.838,1.703   c1.207,0.041,2.388,0.146,3.512,0.311c0.519,0.077,1.033,0.167,1.542,0.268c0.5,0.1,1.018-0.005,1.44-0.289   c0.423-0.284,0.715-0.725,0.812-1.224c0.022-0.11,0.05-0.196,0.083-0.254l3.995-6.931c0.146-0.253,0.371-0.346,0.493-0.379   c0.121-0.033,0.362-0.065,0.616,0.081l12.189,7.025c0.254,0.146,0.346,0.372,0.379,0.493c0.033,0.122,0.065,0.363-0.081,0.617   l-3.999,6.928c-0.005,0.006-0.057,0.074-0.062,0.08c-0.574,0.758-0.505,1.823,0.162,2.5c1.169,1.187,2.265,2.501,3.255,3.905   c0.295,0.417,0.744,0.7,1.248,0.784c0.505,0.083,1.021-0.036,1.435-0.334c0.091-0.065,0.17-0.108,0.236-0.128l7.67-2.275   c0.28-0.086,0.507,0.004,0.618,0.065c0.11,0.06,0.308,0.202,0.391,0.483l4.002,13.488c0.084,0.28-0.005,0.508-0.065,0.618   c-0.06,0.11-0.202,0.308-0.483,0.391l-7.61,2.26l-0.158,0.025c-0.94,0.152-1.625,0.972-1.609,1.924   c0.03,1.711-0.078,3.418-0.32,5.075C80.817,55.281,80.948,55.795,81.254,56.203z"></path><path d="M53.403,30.692C42.817,29.128,32.942,36.47,31.381,47.05c-1.562,10.581,5.777,20.46,16.358,22.023   c0.96,0.141,1.919,0.211,2.873,0.211c4.135,0,8.146-1.319,11.526-3.83c4.159-3.09,6.866-7.614,7.623-12.74   C71.323,42.133,63.985,32.254,53.403,30.692z M65.972,52.155c-1.253,8.493-9.183,14.38-17.674,13.129   c-8.492-1.253-14.381-9.182-13.128-17.674c1.14-7.726,7.804-13.296,15.392-13.296c0.753,0,1.516,0.055,2.283,0.168   C61.336,35.735,67.225,43.663,65.972,52.155z"></path></g></svg>